PublicHD - High-Definition Bittorrent Community 
  
http://publichd.eu/

-----------------------------------------------------


Description:

Pacquiao.vs.Bradley.2012.480p.HDTV.x264.AC3-ADTRG

Boxing 


Source -   superseed  Thanks 


Complete name                            : Pacquiao.vs.Bradley.2012.480p.HDTV.x264.AC3-ADTRG.mkv
Format                                   : Matroska
Format version                           : Version 2
File size                                : 716 MiB
Duration                                 : 59mn 31s
Overall bit rate                         : 1 683 Kbps
Movie name                               : Pacquiao.vs.Bradley.2012.480p.HDTV.x264.AC3-ADTRG
Encoded date                             : UTC 2012-06-10 07:14:42
Writing application                      : mkvmerge v5.4.0 ('Piper') built on Mar 10 2012 13:34:39
Writing library                          : libebml v1.2.3 + libmatroska v1.3.0

Video
ID                                       : 1
Format                                   : AVC
Format/Info                              : Advanced Video Codec
Format profile                           : High@L4.1
Bit rate                                 : 1 500 Kbps
Width                                    : 852 pixels
Height                                   : 478 pixels
Display aspect ratio                     : 16:9
Frame rate                               : 25.000 fps
Stream size                              : 620 MiB (87%)

Audio
ID                                       : 2
Format                                   : AC-3
Bit rate                                 : 192 Kbps
Channel(s)                               : 2 channels
Channel positions                        : Front: L R
Sampling rate                            : 48.0 KHz
Stream size                              : 81.7 MiB (11%)
Language                                 : English


Encoder - LiMeY
Good things come in small packages, So feel the wrath of my compression
